<svg xmlns="http://www.w3.org/2000/svg" version="1.1" xmlns:xlink="http://www.w3.org/1999/xlink" xmlns:svgjs="http://svgjs.dev/svgjs" viewBox="0 0 5.3727702258377725 2.6647164577438764"><g transform="matrix(1,0,0,1,2.6290526029686045,0.4372104842887704)"><g><path d=" M 0.7862055 0.9951074999999999 Q 0.7466834999999999 0.9951074999999999 0.722688 0.9626429999999999 L 0.3966315 0.533547 L 0.525078 0.40227749999999995 L 0.8624265 0.8483114999999999 Q 0.8821875 0.87513 0.8821875 0.906183 Q 0.8821875 0.9457049999999999 0.852546 0.9704062499999999 Q 0.8229045 0.9951074999999999 0.7862055 0.9951074999999999 M 0.8031435 -1.1102230246251565e-16 Q 0.8370195 -1.1102230246251565e-16 0.85889775 0.027524249999999917 Q 0.880776 0.055048499999999945 0.880776 0.08327849999999992 Q 0.880776 0.11291999999999991 0.855369 0.13832699999999998 L 0.2639505 0.7043385 L 0.256893 0.502494 L 0.73398 0.032464499999999896 Q 0.7664445 -1.1102230246251565e-16 0.8031435 -1.1102230246251565e-16 M 0.1933755 0.9951074999999999 Q 0.1538535 0.9951074999999999 0.129858 0.9704062499999999 Q 0.1058625 0.9457049999999999 0.1058625 0.909006 L 0.1058625 0.09315899999999988 Q 0.1058625 0.056459999999999955 0.1312695 0.03175874999999995 Q 0.1566765 0.007057499999999939 0.1961985 0.007057499999999939 Q 0.2357205 0.007057499999999939 0.25901025 0.03175874999999995 Q 0.2823 0.056459999999999955 0.2823 0.09315899999999988 L 0.2823 0.909006 Q 0.2823 0.9457049999999999 0.2583045 0.9704062499999999 Q 0.234309 0.9951074999999999 0.1933755 0.9951074999999999 M 1.4680013525390625 0.007057499999999939 Q 1.5696293525390626 0.007057499999999939 1.6486733525390624 0.045167999999999875 Q 1.7277173525390626 0.08327849999999992 1.7820601025390626 0.1517362499999999 Q 1.8364028525390625 0.2201939999999999 1.8639271025390625 0.3098242499999999 Q 1.8914513525390624 0.39945449999999993 1.8914513525390624 0.5010824999999999 Q 1.8914513525390624 0.6379979999999998 1.8420488525390626 0.7502122499999999 Q 1.7926463525390626 0.8624265 1.6987816025390625 0.9287669999999999 Q 1.6049168525390627 0.9951074999999999 1.4680013525390625 0.9951074999999999 L 1.1306528525390624 0.9951074999999999 Q 1.0939538525390624 0.9951074999999999 1.0692526025390625 0.9704062499999999 Q 1.0445513525390626 0.9457049999999999 1.0445513525390626 0.909006 L 1.0445513525390626 0.09315899999999988 Q 1.0445513525390626 0.056459999999999955 1.0692526025390625 0.03175874999999995 Q 1.0939538525390624 0.007057499999999939 1.1306528525390624 0.007057499999999939 L 1.4680013525390625 0.007057499999999939 M 1.4538863525390626 0.8327849999999999 Q 1.5428108525390627 0.8327849999999999 1.5992708525390626 0.78691125 Q 1.6557308525390626 0.7410374999999999 1.6818436025390624 0.66552225 Q 1.7079563525390626 0.590007 1.7079563525390626 0.5010824999999999 Q 1.7079563525390626 0.43474199999999996 1.6931356025390625 0.3747532499999999 Q 1.6783148525390625 0.3147644999999999 1.6472618525390625 0.26889074999999996 Q 1.6162088525390625 0.2230169999999999 1.5682178525390627 0.19619849999999994 Q 1.5202268525390625 0.16937999999999998 1.4538863525390626 0.16937999999999998 L 1.2068738525390625 0.16937999999999998 L 1.2209888525390626 0.15667649999999989 L 1.2209888525390626 0.8483114999999999 L 1.2125198525390626 0.8327849999999999 L 1.4538863525390626 0.8327849999999999" fill="#231f20" fill-rule="nonzero"></path></g><g><path d=" M 0.28350000000000003 1.241079 Q 0.33825 1.241079 0.379875 1.2617040000000002 Q 0.4215 1.2823290000000003 0.44925 1.3190790000000001 Q 0.47700000000000004 1.3558290000000002 0.490875 1.4034540000000002 Q 0.50475 1.4510790000000002 0.50475 1.5035790000000002 Q 0.50475 1.5755790000000003 0.48 1.635204 Q 0.45525 1.6948290000000001 0.40650000000000003 1.7304540000000002 Q 0.35775 1.7660790000000002 0.28350000000000003 1.7660790000000002 L 0.096 1.7660790000000002 Q 0.08325 1.7660790000000002 0.074625 1.7570790000000003 Q 0.066 1.7480790000000002 0.066 1.7353290000000001 L 0.066 1.2710790000000003 Q 0.066 1.2583290000000003 0.074625 1.2497040000000001 Q 0.08325 1.241079 0.096 1.241079 L 0.28350000000000003 1.241079 M 0.276 1.7075790000000002 Q 0.33375 1.7075790000000002 0.370125 1.6798290000000002 Q 0.40650000000000003 1.652079 0.423375 1.605579 Q 0.44025000000000003 1.559079 0.44025000000000003 1.5035790000000002 Q 0.44025000000000003 1.4630790000000002 0.430875 1.4259540000000002 Q 0.4215 1.388829 0.401625 1.3603290000000001 Q 0.38175000000000003 1.3318290000000002 0.350625 1.3153290000000002 Q 0.3195 1.2988290000000002 0.276 1.2988290000000002 L 0.12225 1.2988290000000002 L 0.12825 1.2928290000000002 L 0.12825 1.7150790000000002 L 0.12375 1.7075790000000002 L 0.276 1.7075790000000002 M 0.7830098876953125 1.7735790000000002 Q 0.7230098876953126 1.7735790000000002 0.6780098876953126 1.7480790000000002 Q 0.6330098876953125 1.722579 0.6082598876953126 1.6779540000000002 Q 0.5835098876953125 1.6333290000000003 0.5835098876953125 1.5748290000000003 Q 0.5835098876953125 1.5095790000000002 0.6093848876953125 1.463454 Q 0.6352598876953126 1.417329 0.6765098876953126 1.3929540000000002 Q 0.7177598876953126 1.3685790000000002 0.7642598876953126 1.3685790000000002 Q 0.7995098876953126 1.3685790000000002 0.8313848876953125 1.3813290000000003 Q 0.8632598876953126 1.394079 0.8883848876953125 1.418454 Q 0.9135098876953125 1.4428290000000001 0.9285098876953126 1.476954 Q 0.9435098876953125 1.511079 0.9442598876953125 1.553079 Q 0.9435098876953125 1.565079 0.9345098876953126 1.5733290000000002 Q 0.9255098876953125 1.581579 0.9135098876953125 1.581579 L 0.6172598876953126 1.581579 L 0.6037598876953125 1.529829 L 0.8925098876953126 1.529829 L 0.8805098876953126 1.5403290000000003 L 0.8805098876953126 1.523829 Q 0.8782598876953125 1.4930790000000003 0.8606348876953125 1.470954 Q 0.8430098876953125 1.4488290000000001 0.8175098876953126 1.4368290000000001 Q 0.7920098876953126 1.4248290000000001 0.7642598876953126 1.4248290000000001 Q 0.7417598876953125 1.4248290000000001 0.7196348876953126 1.4327040000000002 Q 0.6975098876953125 1.440579 0.6798848876953125 1.4582040000000003 Q 0.6622598876953125 1.475829 0.6517598876953126 1.5035790000000002 Q 0.6412598876953126 1.5313290000000002 0.6412598876953126 1.570329 Q 0.6412598876953126 1.6138290000000002 0.6588848876953126 1.646829 Q 0.6765098876953126 1.6798290000000002 0.7080098876953126 1.698954 Q 0.7395098876953126 1.7180790000000001 0.7807598876953126 1.7180790000000001 Q 0.8077598876953126 1.7180790000000001 0.8272598876953126 1.711329 Q 0.8467598876953126 1.7045790000000003 0.8606348876953125 1.6944540000000001 Q 0.8745098876953126 1.6843290000000002 0.8842598876953125 1.6738290000000002 Q 0.8940098876953126 1.6670790000000002 0.9037598876953126 1.6670790000000002 Q 0.9142598876953125 1.6670790000000002 0.9217598876953126 1.6745790000000003 Q 0.9292598876953126 1.682079 0.9292598876953126 1.6925790000000003 Q 0.9292598876953126 1.705329 0.9172598876953126 1.7150790000000002 Q 0.8955098876953126 1.7383290000000002 0.8598848876953126 1.7559540000000002 Q 0.8242598876953126 1.7735790000000002 0.7830098876953125 1.7735790000000002 M 1.016279296875 1.7045790000000003 Q 1.009529296875 1.6948290000000001 1.010279296875 1.6839540000000002 Q 1.011029296875 1.6730790000000002 1.023029296875 1.6648290000000001 Q 1.0305292968750002 1.6595790000000001 1.040654296875 1.6603290000000002 Q 1.050779296875 1.6610790000000002 1.0590292968750001 1.670079 Q 1.080029296875 1.6948290000000001 1.1070292968750002 1.7094540000000003 Q 1.134029296875 1.7240790000000001 1.1730292968750002 1.7240790000000001 Q 1.191029296875 1.723329 1.209029296875 1.7180790000000001 Q 1.227029296875 1.7128290000000002 1.239404296875 1.699704 Q 1.2517792968750001 1.6865790000000003 1.2517792968750001 1.6648290000000001 Q 1.2517792968750001 1.6438290000000002 1.239029296875 1.6314540000000002 Q 1.226279296875 1.6190790000000002 1.2060292968750002 1.611204 Q 1.185779296875 1.6033290000000002 1.161779296875 1.5973290000000002 Q 1.1370292968750002 1.5905790000000002 1.1130292968750002 1.581954 Q 1.0890292968750002 1.5733290000000002 1.069904296875 1.5602040000000001 Q 1.050779296875 1.547079 1.039154296875 1.5272040000000002 Q 1.027529296875 1.5073290000000001 1.027529296875 1.4788290000000002 Q 1.027529296875 1.4450790000000002 1.045904296875 1.4203290000000002 Q 1.0642792968750001 1.3955790000000001 1.0954042968750002 1.382079 Q 1.1265292968750003 1.3685790000000002 1.163279296875 1.3685790000000002 Q 1.1842792968750002 1.3685790000000002 1.2071542968750002 1.3734540000000002 Q 1.2300292968750002 1.3783290000000001 1.2517792968750001 1.3899540000000001 Q 1.273529296875 1.4015790000000001 1.2900292968750002 1.4218290000000002 Q 1.296779296875 1.429329 1.297529296875 1.440579 Q 1.298279296875 1.451829 1.2877792968750001 1.4608290000000002 Q 1.279529296875 1.4668290000000002 1.2694042968750001 1.4660790000000001 Q 1.2592792968750002 1.465329 1.2525292968750001 1.4585790000000003 Q 1.2367792968750002 1.4398290000000002 1.2131542968750002 1.429704 Q 1.1895292968750002 1.4195790000000001 1.1610292968750002 1.4195790000000001 Q 1.1430292968750002 1.4195790000000001 1.1257792968750002 1.4248290000000001 Q 1.108529296875 1.430079 1.096904296875 1.4424540000000001 Q 1.085279296875 1.4548290000000001 1.085279296875 1.476579 Q 1.086029296875 1.4968290000000002 1.098779296875 1.5095790000000002 Q 1.1115292968750001 1.5223290000000003 1.133279296875 1.5302040000000001 Q 1.1550292968750002 1.5380790000000002 1.181279296875 1.5455790000000003 Q 1.2052792968750001 1.5515790000000003 1.227404296875 1.5594540000000001 Q 1.249529296875 1.5673290000000002 1.2675292968750003 1.5800790000000002 Q 1.285529296875 1.592829 1.296029296875 1.6127040000000001 Q 1.3065292968750002 1.6325790000000002 1.3065292968750002 1.6625790000000003 Q 1.3065292968750002 1.6970790000000002 1.2870292968750001 1.722204 Q 1.2675292968750003 1.7473290000000001 1.2356542968750002 1.7604540000000002 Q 1.203779296875 1.7735790000000002 1.167029296875 1.7735790000000002 Q 1.1257792968750002 1.7735790000000002 1.085654296875 1.757829 Q 1.045529296875 1.7420790000000002 1.016279296875 1.7045790000000003 M 1.458778564453125 1.7353290000000001 Q 1.458778564453125 1.7480790000000002 1.450153564453125 1.7570790000000003 Q 1.441528564453125 1.7660790000000002 1.428778564453125 1.7660790000000002 Q 1.415278564453125 1.7660790000000002 1.407028564453125 1.7570790000000003 Q 1.398778564453125 1.7480790000000002 1.398778564453125 1.7353290000000001 L 1.398778564453125 1.4023290000000002 Q 1.398778564453125 1.3895790000000001 1.4074035644531249 1.3809540000000002 Q 1.416028564453125 1.3723290000000001 1.428778564453125 1.3723290000000001 Q 1.441528564453125 1.3723290000000001 1.450153564453125 1.3809540000000002 Q 1.458778564453125 1.3895790000000001 1.458778564453125 1.4023290000000002 L 1.458778564453125 1.7353290000000001 M 1.428778564453125 1.3220790000000002 Q 1.410028564453125 1.3220790000000002 1.401028564453125 1.3145790000000002 Q 1.392028564453125 1.307079 1.392028564453125 1.2913290000000002 L 1.392028564453125 1.2808290000000002 Q 1.392028564453125 1.265079 1.4017785644531249 1.2575790000000002 Q 1.411528564453125 1.2500790000000002 1.429528564453125 1.2500790000000002 Q 1.447528564453125 1.2500790000000002 1.456528564453125 1.2575790000000002 Q 1.465528564453125 1.265079 1.465528564453125 1.2808290000000002 L 1.465528564453125 1.2913290000000002 Q 1.465528564453125 1.307079 1.456153564453125 1.3145790000000002 Q 1.446778564453125 1.3220790000000002 1.428778564453125 1.3220790000000002 M 1.7332847900390624 1.3685790000000002 Q 1.7662847900390626 1.3685790000000002 1.7940347900390625 1.3794540000000002 Q 1.8217847900390625 1.3903290000000001 1.8424097900390626 1.4075790000000001 Q 1.8630347900390625 1.4248290000000001 1.8746597900390625 1.4435790000000002 Q 1.8862847900390625 1.4623290000000002 1.8862847900390625 1.4788290000000002 L 1.8712847900390626 1.4698290000000003 L 1.8712847900390626 1.4045790000000002 Q 1.8712847900390626 1.3918290000000002 1.8799097900390627 1.383204 Q 1.8885347900390625 1.3745790000000002 1.9012847900390626 1.3745790000000002 Q 1.9147847900390627 1.3745790000000002 1.9230347900390625 1.383204 Q 1.9312847900390626 1.3918290000000002 1.9312847900390626 1.4045790000000002 L 1.9312847900390626 1.7330790000000003 Q 1.9312847900390626 1.7945790000000001 1.9054097900390625 1.8350790000000001 Q 1.8795347900390627 1.875579 1.8360347900390626 1.8958290000000002 Q 1.7925347900390625 1.916079 1.7392847900390624 1.916079 Q 1.7167847900390625 1.916079 1.6894097900390626 1.910079 Q 1.6620347900390626 1.9040790000000003 1.6410347900390625 1.8954540000000002 Q 1.6200347900390626 1.886829 1.6147847900390626 1.8778290000000002 Q 1.6035347900390626 1.8703290000000001 1.6009097900390625 1.8609540000000002 Q 1.5982847900390624 1.851579 1.6035347900390626 1.8433290000000002 Q 1.6110347900390625 1.8328290000000003 1.6215347900390626 1.8328290000000003 Q 1.6320347900390626 1.8328290000000003 1.6485347900390626 1.839579 Q 1.6560347900390626 1.8418290000000002 1.6702847900390625 1.8470790000000001 Q 1.6845347900390626 1.8523290000000001 1.7032847900390626 1.8564540000000003 Q 1.7220347900390625 1.8605790000000002 1.7400347900390625 1.8605790000000002 Q 1.8037847900390624 1.8605790000000002 1.8375347900390626 1.8272040000000003 Q 1.8712847900390626 1.7938290000000001 1.8712847900390626 1.7390790000000003 L 1.8712847900390626 1.6693290000000003 L 1.8795347900390627 1.6730790000000002 Q 1.8750347900390625 1.6940790000000001 1.8615347900390624 1.7120790000000001 Q 1.8480347900390626 1.7300790000000001 1.8281597900390625 1.7439540000000002 Q 1.8082847900390626 1.757829 1.7839097900390626 1.7657040000000002 Q 1.7595347900390625 1.7735790000000002 1.7347847900390625 1.7735790000000002 Q 1.6822847900390625 1.7735790000000002 1.6406597900390625 1.7473290000000001 Q 1.5990347900390625 1.7210790000000002 1.5746597900390624 1.675329 Q 1.5502847900390626 1.629579 1.5502847900390626 1.5710790000000001 Q 1.5502847900390626 1.511829 1.5746597900390624 1.4660790000000001 Q 1.5990347900390625 1.4203290000000002 1.6402847900390625 1.394454 Q 1.6815347900390625 1.3685790000000002 1.7332847900390624 1.3685790000000002 M 1.7415347900390625 1.424079 Q 1.7025347900390626 1.424079 1.6725347900390626 1.4432040000000002 Q 1.6425347900390626 1.4623290000000002 1.6252847900390626 1.4953290000000001 Q 1.6080347900390626 1.5283290000000003 1.6080347900390626 1.5710790000000001 Q 1.6080347900390626 1.6123290000000001 1.6252847900390626 1.6457040000000003 Q 1.6425347900390626 1.6790790000000002 1.6725347900390626 1.698579 Q 1.7025347900390626 1.7180790000000001 1.7415347900390625 1.7180790000000001 Q 1.7805347900390625 1.7180790000000001 1.8105347900390625 1.698954 Q 1.8405347900390625 1.6798290000000002 1.8577847900390625 1.646829 Q 1.8750347900390625 1.6138290000000002 1.8750347900390625 1.5710790000000001 Q 1.8750347900390625 1.5275790000000002 1.8577847900390625 1.494579 Q 1.8405347900390625 1.4615790000000002 1.8105347900390625 1.4428290000000001 Q 1.7805347900390625 1.424079 1.7415347900390625 1.424079 M 2.2425523681640627 1.3685790000000002 Q 2.293552368164063 1.3685790000000002 2.3228023681640626 1.3895790000000001 Q 2.3520523681640624 1.4105790000000002 2.3644273681640624 1.4458290000000003 Q 2.3768023681640624 1.4810790000000003 2.3768023681640624 1.5245790000000001 L 2.3768023681640624 1.7353290000000001 Q 2.3768023681640624 1.7480790000000002 2.3681773681640625 1.7570790000000003 Q 2.3595523681640627 1.7660790000000002 2.3468023681640626 1.7660790000000002 Q 2.3340523681640626 1.7660790000000002 2.3254273681640627 1.7570790000000003 Q 2.316802368164063 1.7480790000000002 2.316802368164063 1.7353290000000001 L 2.316802368164063 1.5260790000000002 Q 2.316802368164063 1.4975790000000002 2.3081773681640625 1.4747040000000002 Q 2.2995523681640626 1.451829 2.2796773681640627 1.4379540000000002 Q 2.2598023681640624 1.424079 2.2253023681640625 1.424079 Q 2.1938023681640626 1.424079 2.1675523681640625 1.4379540000000002 Q 2.1413023681640624 1.451829 2.1255523681640627 1.4747040000000002 Q 2.1098023681640625 1.4975790000000002 2.1098023681640625 1.5260790000000002 L 2.1098023681640625 1.7353290000000001 Q 2.1098023681640625 1.7480790000000002 2.1011773681640626 1.7570790000000003 Q 2.0925523681640628 1.7660790000000002 2.0798023681640627 1.7660790000000002 Q 2.0670523681640627 1.7660790000000002 2.058427368164063 1.7570790000000003 Q 2.0498023681640625 1.7480790000000002 2.0498023681640625 1.7353290000000001 L 2.0498023681640625 1.4083290000000002 Q 2.0498023681640625 1.3955790000000001 2.058427368164063 1.3869540000000002 Q 2.0670523681640627 1.3783290000000001 2.0798023681640627 1.3783290000000001 Q 2.093302368164063 1.3783290000000001 2.1015523681640627 1.3869540000000002 Q 2.1098023681640625 1.3955790000000001 2.1098023681640625 1.4083290000000002 L 2.1098023681640625 1.4615790000000002 L 2.0948023681640624 1.4780790000000001 Q 2.0985523681640625 1.4585790000000003 2.1120523681640626 1.4387040000000002 Q 2.1255523681640627 1.4188290000000001 2.1458023681640626 1.4030790000000002 Q 2.1660523681640624 1.3873290000000003 2.1908023681640625 1.3779540000000001 Q 2.2155523681640625 1.3685790000000002 2.2425523681640627 1.3685790000000002" fill="#231f20" fill-rule="nonzero"></path></g><g clip-path="url(#SvgjsClipPath1001)"><g clip-path="url(#a18aa2fe4-25c8-4c2a-b4bc-8545ea09537b5854a1d6-88db-4d59-b890-deda1e8948ff)"><path d=" M -0.1606960369681536 1.2821480040554376 L -2.3018995810023846 1.2821480040554376 L -2.3018995810023846 -0.015881240513627534 C -2.3018830161856134 -0.06790304361622906 -2.2597151507530886 -0.11007090904874729 -2.207693347650494 -0.1100874738655107 L -0.254902270320037 -0.1100874738655107 C -0.2028804672174429 -0.11007090904874343 -0.1607126017849212 -0.06790304361622172 -0.1606960369681536 -0.01588124051362734 Z" fill="#5a5758" transform="matrix(1,0,0,1,0,0)" fill-rule="nonzero"></path></g><g clip-path="url(#a18aa2fe4-25c8-4c2a-b4bc-8545ea09537b5854a1d6-88db-4d59-b890-deda1e8948ff)"><path d=" M -0.1606960369681536 1.2821480040554376 L -2.3018995810023846 1.2821480040554376 L -2.3018995810023846 -0.015881240513627534 C -2.3018830161856134 -0.06790304361622906 -2.2597151507530886 -0.11007090904874729 -2.207693347650494 -0.1100874738655107 L -0.254902270320037 -0.1100874738655107 C -0.2028804672174429 -0.11007090904874343 -0.1607126017849212 -0.06790304361622172 -0.1606960369681536 -0.01588124051362734 Z" fill="none" transform="matrix(1,0,0,1,0,0)" fill-rule="nonzero" stroke-dasharray="none" stroke-miterlimit="10" stroke-linejoin="miter" stroke-linecap="butt" stroke-width="0.031392073936307656" stroke="#231f20"></path></g><g clip-path="url(#a18aa2fe4-25c8-4c2a-b4bc-8545ea09537b5854a1d6-88db-4d59-b890-deda1e8948ff)"><path d=" M -2.3019295925453447 1.2821480040554376 L -0.16072604851111372 1.2821480040554376 L -0.16072604851111372 1.4042649723602523 C -0.16072604773582633 1.4562936369757162 -0.20290361443996874 1.4984712049368478 -0.2549322804592151 1.4984712057121352 L -2.2077233591934617 1.4984712057121352 C -2.232708405724053 1.4984712057121352 -2.256670129796578 1.4885459346234535 -2.2743372256266206 1.470878838793411 C -2.2920043214566634 1.4532117429633682 -2.3019295925453447 1.4292500188908437 -2.3019295925453447 1.4042649723602523 Z" fill="#ffffff" transform="matrix(1,0,0,1,0,0)" fill-rule="nonzero"></path></g><g clip-path="url(#a18aa2fe4-25c8-4c2a-b4bc-8545ea09537b5854a1d6-88db-4d59-b890-deda1e8948ff)"><path d=" M -2.3019295925453447 1.2821480040554376 L -0.16072604851111372 1.2821480040554376 L -0.16072604851111372 1.4042649723602523 C -0.16072604773582633 1.4562936369757162 -0.20290361443996874 1.4984712049368478 -0.2549322804592151 1.4984712057121352 L -2.2077233591934617 1.4984712057121352 C -2.232708405724053 1.4984712057121352 -2.256670129796578 1.4885459346234535 -2.2743372256266206 1.470878838793411 C -2.2920043214566634 1.4532117429633682 -2.3019295925453447 1.4292500188908437 -2.3019295925453447 1.4042649723602523 Z" fill="none" transform="matrix(1,0,0,1,0,0)" fill-rule="nonzero" stroke-dasharray="none" stroke-miterlimit="10" stroke-linejoin="miter" stroke-linecap="butt" stroke-width="0.031392073936307656" stroke="#231f20"></path></g><g clip-path="url(#SvgjsClipPath10005854a1d6-88db-4d59-b890-deda1e8948ff)"><path d=" M -1.3453167328043438 1.3903008480938892 L -1.1172890293931912 1.3903008480938892" fill="none" transform="matrix(1,0,0,1,0,0)" fill-rule="nonzero" stroke-dasharray="none" stroke-miterlimit="10" stroke-linejoin="miter" stroke-linecap="butt" stroke-width="0.031392073936307656" stroke="#231f20"></path></g><g clip-path="url(#SvgjsClipPath10005854a1d6-88db-4d59-b890-deda1e8948ff)"><path d=" M -2.1917572183386667 1.1706551219585135 L -2.124711431365711 1.1706551219585135 L -2.124711431365711 0.0739132960231147 L -2.1917572183386667 0.0739132960231147 Z" fill="#d3d2d2" transform="matrix(1,0,0,1,0,0)" fill-rule="nonzero" stroke-dasharray="none" stroke-miterlimit="10" stroke-linejoin="miter" stroke-linecap="butt" stroke-width="0.031392073936307656" stroke="#231f20"></path></g><g clip-path="url(#SvgjsClipPath10005854a1d6-88db-4d59-b890-deda1e8948ff)"><path d=" M -2.1917572183386667 0.07070206092637968 L -0.27086841117483207 0.07070206092637968 L -0.27086841117483207 0.0036562739534242716 L -2.1917572183386667 0.0036562739534242716 Z" fill="#d3d2d2" transform="matrix(1,0,0,1,0,0)" fill-rule="nonzero" stroke-dasharray="none" stroke-miterlimit="10" stroke-linejoin="miter" stroke-linecap="butt" stroke-width="0.03136206239334751" stroke="#231f20"></path></g><g clip-path="url(#SvgjsClipPath10005854a1d6-88db-4d59-b890-deda1e8948ff)"><path d=" M -2.124725954888005 0.08551574439603293 L -2.124725954888005 0.00634529406718054" fill="none" transform="matrix(1,0,0,1,0,0)" fill-rule="nonzero" stroke-dasharray="none" stroke-miterlimit="10" stroke-linejoin="miter" stroke-linecap="butt" stroke-width="0.031392073936307656" stroke="#231f20"></path></g><g clip-path="url(#SvgjsClipPath10005854a1d6-88db-4d59-b890-deda1e8948ff)"><path d=" M -2.139056948900659 0.05638655493439215 L -2.1774417123466794 0.05638655493439215 L -2.1774417123466794 0.018001791488371527 L -2.139056948900659 0.018001791488371527 Z" fill="#67c5f0" transform="matrix(1,0,0,1,0,0)" fill-rule="nonzero"></path></g><g clip-path="url(#SvgjsClipPath10005854a1d6-88db-4d59-b890-deda1e8948ff)"><path d=" M -0.27086841117483207 1.1706551219585135 L -2.124711431365711 1.1706551219585135 L -2.124711431365711 0.0739132960231147 L -0.27086841117483207 0.0739132960231147 Z" fill="#ffffff" transform="matrix(1,0,0,1,0,0)" fill-rule="nonzero" stroke-dasharray="none" stroke-miterlimit="10" stroke-linejoin="miter" stroke-linecap="butt" stroke-width="0.031392073936307656" stroke="#231f20"></path></g><g clip-path="url(#SvgjsClipPath10005854a1d6-88db-4d59-b890-deda1e8948ff)"><path d=" M -2.124725954888005 0.236369142218677 L -0.27088293469712577 0.236369142218677" fill="none" transform="matrix(1,0,0,1,0,0)" fill-rule="nonzero" stroke-dasharray="none" stroke-miterlimit="10" stroke-linejoin="miter" stroke-linecap="butt" stroke-width="0.031392073936307656" stroke="#231f20"></path></g><g clip-path="url(#SvgjsClipPath10005854a1d6-88db-4d59-b890-deda1e8948ff)"><path d=" M -1.790156437544558 0.07709748555006618 L -1.790156437544558 0.2363687440395354" fill="none" transform="matrix(1,0,0,1,0,0)" fill-rule="nonzero" stroke-dasharray="none" stroke-miterlimit="10" stroke-linejoin="miter" stroke-linecap="butt" stroke-width="0.031392073936307656" stroke="#231f20"></path></g><g clip-path="url(#SvgjsClipPath10005854a1d6-88db-4d59-b890-deda1e8948ff)"><path d=" M -1.7285725974307478 0.15673331388437156 L -0.3318954111516992 0.15673331388437156" fill="none" transform="matrix(1,0,0,1,0,0)" fill-rule="nonzero" stroke-dasharray="none" stroke-miterlimit="10" stroke-linejoin="miter" stroke-linecap="butt" stroke-width="0.031392073936307656" stroke="#231f20"></path></g><g clip-path="url(#SvgjsClipPath10005854a1d6-88db-4d59-b890-deda1e8948ff)"><path d=" M -2.0292147016665423 0.17571244974391348 L -2.0675994651125627 0.17571244974391348 L -2.0675994651125627 0.13732768629789288 L -2.0292147016665423 0.13732768629789288 Z M -1.9401104306178831 0.17571244974391348 L -1.9784951940639037 0.17571244974391348 L -1.9784951940639037 0.13732768629789288 L -1.9401104306178831 0.13732768629789288 Z M -1.851036171112184 0.17571244974391348 L -1.8894209345582047 0.17571244974391348 L -1.8894209345582047 0.13732768629789288 L -1.851036171112184 0.13732768629789288 Z" fill="#231f20" transform="matrix(1,0,0,1,0,0)" fill-rule="nonzero"></path></g><g clip-path="url(#SvgjsClipPath10005854a1d6-88db-4d59-b890-deda1e8948ff)"><path d=" M -0.3744382459302791 0.6964127201023627 L -2.0211115850673043 0.6964127201023627 L -2.0211115850673043 0.43210106125239944 L -0.3744382459302791 0.43210106125239944 Z" fill="#f03f52" transform="matrix(1,0,0,1,0,0)" fill-rule="nonzero"></path></g><g clip-path="url(#SvgjsClipPath10005854a1d6-88db-4d59-b890-deda1e8948ff)"><path d=" M -1.649251891085329 0.782543075099378 L -0.37445158076741314 0.782543075099378" fill="none" transform="matrix(1,0,0,1,0,0)" fill-rule="nonzero" stroke-dasharray="none" stroke-miterlimit="10" stroke-linejoin="miter" stroke-linecap="butt" stroke-width="0.031121970049666384" stroke="#231f20"></path></g><g clip-path="url(#SvgjsClipPath10005854a1d6-88db-4d59-b890-deda1e8948ff)"><path d=" M -1.649251891085329 0.8673108901098345 L -0.37445158076741314 0.8673108901098345" fill="none" transform="matrix(1,0,0,1,0,0)" fill-rule="nonzero" stroke-dasharray="none" stroke-miterlimit="10" stroke-linejoin="miter" stroke-linecap="butt" stroke-width="0.031121970049666384" stroke="#231f20"></path></g><g clip-path="url(#SvgjsClipPath10005854a1d6-88db-4d59-b890-deda1e8948ff)"><path d=" M -1.649251891085329 0.9521012138337827 L -0.37445158076741314 0.9521012138337827" fill="none" transform="matrix(1,0,0,1,0,0)" fill-rule="nonzero" stroke-dasharray="none" stroke-miterlimit="10" stroke-linejoin="miter" stroke-linecap="butt" stroke-width="0.031121970049666384" stroke="#231f20"></path></g><g clip-path="url(#SvgjsClipPath10005854a1d6-88db-4d59-b890-deda1e8948ff)"><path d=" M -1.649251891085329 1.0368915375577306 L -0.37445158076741314 1.0368915375577306" fill="none" transform="matrix(1,0,0,1,0,0)" fill-rule="nonzero" stroke-dasharray="none" stroke-miterlimit="10" stroke-linejoin="miter" stroke-linecap="butt" stroke-width="0.031121970049666384" stroke="#231f20"></path></g><g clip-path="url(#SvgjsClipPath10005854a1d6-88db-4d59-b890-deda1e8948ff)"><path d=" M -1.712352831093372 1.0558909816789335 L -2.0211415966102644 1.0558909816789335 L -2.0211415966102644 0.7666097190861328 L -1.712352831093372 0.7666097190861328 Z" fill="#67c5f0" transform="matrix(1,0,0,1,0,0)" fill-rule="nonzero"></path></g><g clip-path="url(#SvgjsClipPath10005854a1d6-88db-4d59-b890-deda1e8948ff)"><path d=" M -1.4460303988650791 0.3663457706267302 L -1.4844151623110997 0.3663457706267302 L -1.4844151623110997 0.3279610071807096 L -1.4460303988650791 0.3279610071807096 Z M -1.35689611627346 0.3663457706267302 L -1.3952808797194804 0.3663457706267302 L -1.3952808797194804 0.3279610071807096 L -1.35689611627346 0.3279610071807096 Z M -1.2677318221388807 0.3663457706267302 L -1.3061165855849015 0.3663457706267302 L -1.3061165855849015 0.3279610071807096 L -1.267731822138881 0.3279610071807096 Z M -1.1785975395472612 0.3663457706267302 L -1.2169823029932818 0.3663457706267302 L -1.2169823029932818 0.3279610071807096 L -1.1785975395472612 0.3279610071807096 Z M -1.0894632569556422 0.3663457706267302 L -1.1278480204016625 0.3663457706267302 L -1.1278480204016625 0.3279610071807096 L -1.0894632569556422 0.3279610071807096 Z M -1.000328974364023 0.3663457706267302 L -1.0387137378100433 0.3663457706267302 L -1.0387137378100433 0.3279610071807096 L -1.000328974364023 0.3279610071807096 Z M -0.9111646802294437 0.3663457706267302 L -0.9495494436754643 0.3663457706267302 L -0.9495494436754643 0.3279610071807096 L -0.9111646802294437 0.3279610071807096 Z" fill="#231f20" transform="matrix(1,0,0,1,0,0)" fill-rule="nonzero"></path></g><g clip-path="url(#SvgjsClipPath10005854a1d6-88db-4d59-b890-deda1e8948ff)"><path d=" M -1.601190075969009 1.875326150662628 L -0.8614655650874496 1.875326150662628 L -0.8614655650874496 1.784601256294121 L -1.601190075969009 1.784601256294121 Z" fill="#ffffff" transform="matrix(1,0,0,1,0,0)" fill-rule="nonzero"></path></g><g clip-path="url(#b18aa2fe4-25c8-4c2a-b4bc-8545ea09537b5854a1d6-88db-4d59-b890-deda1e8948ff)"><path d=" M -0.8614655650874496 1.875326150662628 L -1.601190075969009 1.875326150662628 L -1.601190075969009 1.784601256294121 L -0.8614655650874496 1.784601256294121 Z" fill="none" transform="matrix(1,0,0,1,0,0)" fill-rule="nonzero" stroke-dasharray="none" stroke-miterlimit="10" stroke-linejoin="miter" stroke-linecap="butt" stroke-width="0.031392073936307656" stroke="#231f20"></path></g><g clip-path="url(#SvgjsClipPath10005854a1d6-88db-4d59-b890-deda1e8948ff)"><path d=" M -1.0517355827296277 1.4984777251359112 L -0.995073789620881 1.7846077757178969 L -1.4675154988994232 1.7846077757178969 L -1.4108537057906765 1.4984777251359112 Z" fill="#ffffff" transform="matrix(1,0,0,1,0,0)" fill-rule="nonzero"></path></g><g clip-path="url(#SvgjsClipPath10005854a1d6-88db-4d59-b890-deda1e8948ff)"><path d=" M -1.0517355827296277 1.4984777251359112 L -0.995073789620881 1.7846077757178969 L -1.4675154988994232 1.7846077757178969 L -1.4108537057906765 1.4984777251359112 Z" fill="none" transform="matrix(1,0,0,1,0,0)" fill-rule="nonzero" stroke-dasharray="none" stroke-miterlimit="10" stroke-linejoin="miter" stroke-linecap="butt" stroke-width="0.031392073936307656" stroke="#231f20"></path></g><g clip-path="url(#c18aa2fe4-25c8-4c2a-b4bc-8545ea09537b5854a1d6-88db-4d59-b890-deda1e8948ff)"><path d=" M -2.3176256295134987 1.8761664738655117 L -0.14500000000000002 1.8761664738655117" fill="none" transform="matrix(1,0,0,1,0,0)" fill-rule="nonzero" stroke-dasharray="none" stroke-miterlimit="10" stroke-linejoin="miter" stroke-linecap="butt" stroke-width="0.031392073936307656" stroke="#231f20"></path></g></g></g><defs><clipPath id="SvgjsClipPath1001"><path d=" M -2.3176256295134987 -0.12578351083366457 h 2.1726256295134987 v 2.0176460216673293 h -2.1726256295134987 Z"></path></clipPath><clipPath id="a18aa2fe4-25c8-4c2a-b4bc-8545ea09537b5854a1d6-88db-4d59-b890-deda1e8948ff"><path d=" M -2.3176256295134987 1.8918625108336657 L -0.14500000000000002 1.8918625108336657 L -0.14500000000000002 -0.12578351083366457 L -2.3176256295134987 -0.12578351083366457 Z"></path></clipPath><clipPath id="SvgjsClipPath10005854a1d6-88db-4d59-b890-deda1e8948ff"><path d=" M -2.3176256295134987 -0.12578351083366476 L -0.14500000000000002 -0.12578351083366476 L -0.14500000000000002 1.8918625108336649 L -2.3176256295134987 1.8918625108336649 Z"></path></clipPath><clipPath id="b18aa2fe4-25c8-4c2a-b4bc-8545ea09537b5854a1d6-88db-4d59-b890-deda1e8948ff"><path d=" M -2.3176256295134987 1.8918625108336657 L -0.14500000000000002 1.8918625108336657 L -0.14500000000000002 -0.12578351083366457 L -2.3176256295134987 -0.12578351083366457 Z"></path></clipPath><clipPath id="c18aa2fe4-25c8-4c2a-b4bc-8545ea09537b5854a1d6-88db-4d59-b890-deda1e8948ff"><path d=" M -2.3176256295134987 1.8918625108336657 L -0.14500000000000002 1.8918625108336657 L -0.14500000000000002 -0.12578351083366457 L -2.3176256295134987 -0.12578351083366457 Z"></path></clipPath></defs></svg>